<?xml version="1.0" encoding="utf-8"?>
<!-- Generator: Adobe Illustrator 28.0.0, SVG Export Plug-In . SVG Version: 6.00 Build 0)  -->
<svg version="1.1" id="Ebene_1" xmlns="http://www.w3.org/2000/svg" xmlns:xlink="http://www.w3.org/1999/xlink" x="0px" y="0px"
	 viewBox="0 0 1340.3 602.3" style="enable-background:new 0 0 1340.3 602.3;" xml:space="preserve">
<style type="text/css">
	.st0{fill:#DDE4EE;}
	.st1{fill:#020202;}
	.st2{fill:#CFD9E5;}
	.st3{fill:#FDFDFD;}
	.st4{fill:#242934;}
	.st5{fill:#161923;}
</style>
<path class="st0" d="M463,573.4c7.7-6.5,16.1-12.4,22.9-19.7c19.8-21.2,30.6-46.5,31.2-75.7c0.5-22.5-5.6-43.5-17-62.8
	c-4.2-7-5.9-12.8,0.6-18.9c0.4-0.4,0.7-1,1-1.6c13.4-22.4,20.8-46.8,23.7-72.7c4.3-39.3-2.8-76.5-20.3-111.8c-3.5-7-3.5-7,2.3-12
	c30.6-26.4,42.7-69.8,29.5-107.9c-10.4-30-29.7-52.2-60.1-63.1c-28.5-10.2-55.8-6.1-81.7,9c-1.9,1.1-4.4,1.7-6.6,1.7
	c-12-0.4-23.7,0.8-35.1,4.7c-5.5,1.9-10.8,4.4-16.1,6.6C333,35.7,327.1,24.9,318,14.9C312.8,9.2,307.2,3.7,299.7,1
	c-9.3-3.4-16.5,2-15.8,11.8c0.1,1.5,0.3,3,0.5,4.5c2.6,17.8-9.1,37.3-30.7,39.6c-14.5,1.6-28.9,4.3-43.1,7.4
	c-10.2,2.2-20,6-30.3,9.2c-3.2-4.7-6.3-10.1-10.1-15C137.8,16.8,80.6,9.4,39,42C16.1,60,3.2,84,0.5,113
	c-1.9,21.2,2.4,41.3,13.4,59.7c7.1,11.9,16.1,22.2,27.2,30.9c-1.9,3.8-3.8,7.4-5.5,11.1c-15.2,32-20.7,65.7-18.2,100.9
	c2.2,31,11.2,59.8,28.4,85.7c2,3,1.8,5.2-0.1,8C38,421,32.2,433.5,28.9,447.1c-10,40.6-0.1,76.2,27.6,106.9c6.6,7.3,15,13,22.6,19.4
	c-0.8,0.2-1.6,0.6-2.4,0.7c-5.5,1.1-11,1.8-16.4,3.2c-3.4,0.9-5.4,3.5-5.2,7.3c0.1,3,2.8,6.8,5.8,7.5c4.5,1,9,1.7,13.6,2.3
	c7.8,0.9,15.5,1.7,23.3,2.4c10.7,1,21.5,2.7,32.2,2.8c92.1,0.2,184.2,0.2,276.3,0c11.3,0,22.6-1.2,33.8-2.3
	c12.6-1.2,25.1-2.9,37.7-4.4c4.6-0.5,8.4-4.2,8.6-8.4c0.2-4.9-1.9-7.1-7.7-8.2C473.4,575.4,468.2,574.4,463,573.4L463,573.4z"/>
<path class="st1" d="M79,573.4c-7.6-6.4-16-12.1-22.6-19.4c-27.7-30.7-37.6-66.3-27.6-106.9c3.4-13.6,9.1-26.1,16.8-37.8
	c1.9-2.8,2.1-5.1,0.1-8c-17.2-26-26.1-54.7-28.4-85.7c-2.5-35.2,3-68.9,18.2-100.9c1.8-3.7,3.6-7.3,5.5-11.1
	c-11.1-8.8-20.1-19-27.2-30.9C2.8,154.3-1.5,134.2,0.5,113C3.1,84,16.1,60,39,42c41.6-32.6,98.8-25.2,131.2,16.6
	c3.8,4.9,7,10.3,10.1,15c10.3-3.2,20.1-7,30.3-9.2c14.2-3.1,28.6-5.9,43.1-7.4c21.7-2.3,33.3-21.9,30.7-39.6c-0.2-1.5-0.4-3-0.5-4.5
	C283.2,3,290.4-2.4,299.7,1c7.5,2.7,13.1,8.2,18.3,13.9c9.1,10,15.1,20.8,19.4,34.2c5.4-2.2,10.6-4.7,16.1-6.6
	c11.3-3.9,23.1-5,35.1-4.7c2.2,0.1,4.7-0.6,6.6-1.7c25.9-15.1,53.2-19.3,81.7-9c30.4,10.9,49.7,33.2,60.1,63.1
	c13.2,38.2,1.1,81.5-29.5,107.9c-5.9,5.1-5.8,5-2.3,12c17.6,35.3,24.7,72.5,20.3,111.8c-2.8,25.9-10.3,50.2-23.7,72.7
	c-0.3,0.5-0.5,1.2-1,1.6c-6.4,6.2-4.7,11.9-0.6,18.9c11.4,19.2,17.5,40.3,17,62.8c-0.7,29.2-11.4,54.5-31.2,75.7
	c-6.8,7.3-15.2,13.2-22.9,19.7c-5.9,2.8-11.8,5.7-17.8,8.5c-9.4,4.4-19.5,6.8-29.7,7.2c-20.6,0.6-41.2,0-61.8,0
	c-73.4,0-146.9,0-220.3,0.1c-14.1,0-27.5-2.9-40.3-8.8C88.3,578.3,83.7,575.8,79,573.4L79,573.4z M506.5,155.7
	c1.1-3.1,2.1-6.3,3.5-9.3c5.2-11.8,5-24.1,3.6-36.5c-1.2-11.3-5.9-21.3-12.3-30.5c-6.2-9-14-16.2-23.7-21.5
	c-7.8-4.2-16.1-6.8-24.8-7.5c-6.9-0.6-14,0-20.9,0c-0.1,0.5-0.2,1-0.3,1.5c3.4,2.4,7.1,4.5,10,7.4c3.5,3.5,7.7,4.5,12.3,5
	c16.7,1.8,29.3,10.7,38.7,24.1c11.8,16.9,13.4,35.7,8.7,55.4c-0.2,0.7-0.5,1.5-0.7,2.2c0,0.5,0,1-0.1,1.5c-0.7,1-1.5,2-2.1,3
	c-3.3,5.6-6.3,11.5-10,16.8c-3.8,5.5-4.2,5.2,0.5,10.1C494.8,173.4,502.5,163.9,506.5,155.7L506.5,155.7z M124.1,105.5
	c2-1.1,4-2.3,7.3-4.2c-2-1.4-3.3-2.2-4.5-3.1C120.3,93,113.3,89,104.6,88c-9.8-1.1-19.1-0.3-27.6,4.9c-11.4,7-17.6,17.6-19.6,30.6
	c-0.6,4.2-0.1,8.5-0.1,12.8c1,9.1,2.7,17.8,9.5,25.3c3.6-4.4,7-8.5,10.3-12.6c9.7-12.1,21-22.6,33-32.3
	C114.7,112.8,119.4,109.2,124.1,105.5L124.1,105.5z M38.7,135.5c0-6.1-0.9-12.4,0.1-18.3C41.8,98,50.6,82.5,68,72.7
	c17.7-10,35.8-10.3,54.1-2.3c10.1,4.4,18.1,11.7,25.4,20.3c1.8-1.2,3.4-2.3,5.1-3.3c2.1-1.3,2.8-2.6,1-4.8c-3.1-3.7-6-7.6-9.2-11.2
	c-7.1-8-15.8-13.8-25.7-17.5c-12.5-4.8-25.5-5.5-38.5-2c-13.5,3.7-24.8,10.9-34.2,21.4c-11.8,13.2-17.9,28.5-18,46.1
	c0,6.3,1,12.6,1.5,18.9c0.2,0.5,0.4,1,0.7,1.5c0.5,1,0.9,2.1,1.4,3.1c0.2,1.5-0.1,3.2,0.6,4.4c3.2,6.2,6.4,12.6,10.2,18.4
	c2.9,4.4,7,8.1,10.9,12.5c2-2.6,3.4-4.4,4.8-6.2c-7-7.8-12.7-16-16.1-25.6c-0.4-1.3-1.4-2.4-2.1-3.6c0-1.2-0.1-2.4-0.1-3.7
	C39.6,138,39.1,136.7,38.7,135.5L38.7,135.5z M224.5,539.7c-1.2,6.9-2.3,13.9-3.5,20.8h101.1c-1.2-7.1-2.3-14-3.4-20.8
	c-0.1-10.5,1.5-20.8,5.2-30.6c1.5-2.9,3-5.8,4.7-9.2c-19.4,3.4-38.3,4.9-57.3,4.5c-18.8-0.5-37.6-2-56.5-3.1
	c1.3,2.6,2.8,5.5,4.3,8.5C222.7,519.4,224.5,529.4,224.5,539.7L224.5,539.7z M346.8,527.7c-0.5,3.5-1,7-1.5,10.4
	c0.8,5.1,1.1,10.4,2.6,15.3c0.9,2.9,1.7,7.2,6.4,7.2c21.3-0.2,42.7-0.2,64-0.8c11.5-0.3,21.6-5.5,30.9-11.6
	c11.8-7.8,21.4-17.9,28.8-30.2c7.6-12.6,10.7-26.3,11.1-40.7c-0.5-6.3-0.6-12.6-1.7-18.8c-1-5.1-3.2-10-4.9-15
	c-1.8-3.9-3.4-7.9-5.5-11.7c-1.4-2.6-3.2-1.8-5.1,0.1c-10.3,10.4-21.7,19.4-34.6,26.4c-7.6,4.2-15.1,8.5-22.9,12.2
	c-10.5,5-21.3,9.5-31.9,14.2c-4.5,2-9.3,3.7-13.2,6.6c-8.8,6.5-15.2,15.2-19.6,25.2C348.2,520.2,347.7,524.1,346.8,527.7
	L346.8,527.7z M196,527.7c-0.2-1.6-0.3-3.2-0.7-4.8c-2-7-5.4-13.2-10-19c-5.5-6.9-11.7-12.9-19.9-16.5c-9-3.8-18-7.7-26.9-11.7
	c-6.6-3-13.2-6.2-19.7-9.6c-10.3-5.4-20.5-11-29.5-18.4c-6.4-5.2-12.6-10.8-19-16.2c-1.2-1-3.1-2.6-4.4-0.3c-1.9,3.2-3.3,6.7-4.9,10
	c-0.4,0.6-1,1.2-1.2,1.8c-3.5,10.6-7.3,21.2-5.6,32.7c-0.2,0.7-0.6,1.4-0.7,2c-0.4,9.4,1,18.6,4.6,27.3
	c6.7,16.2,16.6,30.1,31.1,40.3c12,8.5,25,14.8,40.1,15c19.5,0.2,38.9,0,58.4,0.1c3.2,0,4.8-1.2,6-3.8c2.9-5.9,4.3-12.2,3.8-18.8
	C197,534.7,196.5,531.2,196,527.7L196,527.7z M313,89.7c0.1-2.1,0.1-4.2,0.2-6.3c0.2-5.2,0.8-10.4,0.5-15.6
	c-0.5-6.9-2.7-13.5-6.5-20.1c-0.9,2.5-1.6,4.4-2.2,6.2c-4.2,12-12,20.8-23.7,26.1c-8.2,3.8-17,5-25.8,5.8
	c-33.2,2.8-64.3,12.2-93.1,28.9c-16,9.3-31.1,19.8-44.4,32.8c-1,0.8-2,1.4-2.9,2.3c-22.1,20.2-39.7,43.7-52.3,71
	c-18.1,39.2-24.2,79.8-13.7,122.2c7.6,30.3,23.1,56,47.3,75.9c17.8,14.6,38,25.2,59.1,34.1c49.1,20.7,100,27.9,152.8,21.3
	c38.5-4.8,74.8-16.8,108.8-35.9c19.7-11,37.5-24.3,51.5-42.2c22-28.2,30.8-60.6,30.8-95.8c0-32.9-10.2-63.1-25.7-91.7
	c-7.2-13.2-16.6-24.9-26.2-36.4c-3.5-4.2-3.3-4.6-0.2-9.1c4.6-6.7,6.5-14.2,6.7-22.4c-2.3-0.2-4.5-0.3-6.5-0.6
	c-2.8-0.4-3.8,0.6-4.3,3.5c-2.7,14.5-10.2,26.3-21.5,35.4c-29.3,23.6-72.7,10.8-85-24.7c-9.4-27.1,2.3-56.3,27.2-67.3
	c14.7-6.5,29.7-7.1,44.6-0.3c1.3,0.6,3.5,0.9,4.3,0.2c3.2-2.8,5.9-6,9.1-9.4c-2.1-1.5-3.8-2.9-5.7-4.1c-21.4-13-53-10.8-73.7,5.3
	c-5.1,4-9.7,8.6-15,12.4C322.1,95.1,317.9,94.4,313,89.7L313,89.7z M389.2,140.7c-1.2-1.1-2.4-2.2-3.5-3.3c-4.4-4.4-8.7-9-13.3-13.2
	c-5-4.6-12.3-3-15.4,3.1c-2.2,4.4-1.5,8.2,2.7,12.5c6.9,7,14,13.9,21,20.9c5.1,5,10.2,5.4,15.6,0.8c3.4-2.9,6.5-6.2,9.7-9.3
	c10.2-10.1,20.4-20.2,30.6-30.3c2.4-2.4,4.5-4,8.7-3.1c12.1,2.5,22.5-7.6,20.4-19.1c-1.5-7.9-7.3-13.4-15.2-14.3
	c-7.5-0.8-14.6,3.4-17.8,10.4c-0.9,2-1.5,4.4-3,5.8C416.5,114.6,403,127.5,389.2,140.7L389.2,140.7z M485.5,127.4
	c-3.2,2-4.4,4.3-4.5,7.6c-0.2,5.4-0.9,10.8-1.3,16.2c0,0.6,0.3,1.2,0.6,2.6C484.6,145.2,485.8,136.8,485.5,127.4z M479.1,155.5
	c0,0.1-0.1,0.2-0.1,0.3c0,0,0.2,0.1,0.3,0.1c0-0.1,0.1-0.2,0.1-0.3C479.3,155.5,479.1,155.5,479.1,155.5z"/>
<path class="st2" d="M79,573.4c4.7,2.3,9.3,4.8,14,7c12.8,5.9,26.2,8.8,40.3,8.8c73.4-0.1,146.9-0.1,220.3-0.1
	c20.6,0,41.2,0.5,61.8,0c10.2-0.3,20.3-2.8,29.7-7.2c6-2.8,11.9-5.7,17.8-8.5c5.2,1,10.4,2,15.6,3c5.8,1.1,7.9,3.2,7.7,8.2
	c-0.2,4.2-3.9,7.9-8.6,8.4c-12.6,1.5-25.1,3.2-37.7,4.4c-11.2,1.1-22.5,2.3-33.8,2.3c-92.1,0.2-184.2,0.2-276.3,0
	c-10.8,0-21.5-1.8-32.3-2.8c-7.8-0.7-15.6-1.5-23.3-2.4c-4.6-0.5-9.1-1.3-13.6-2.3c-3-0.6-5.7-4.5-5.8-7.5c-0.2-3.8,1.8-6.4,5.2-7.3
	c5.4-1.4,10.9-2.1,16.4-3.2C77.4,574,78.2,573.7,79,573.4L79,573.4z"/>
<path class="st3" d="M118,147.5c13.3-13,28.4-23.5,44.4-32.8c28.8-16.7,59.9-26.1,93.1-28.9c8.8-0.8,17.6-2,25.8-5.8
	c11.6-5.4,19.4-14.1,23.7-26.1c0.6-1.9,1.3-3.7,2.2-6.2c3.9,6.6,6.1,13.1,6.5,20.1c0.3,5.2-0.3,10.4-0.5,15.6
	c-0.1,2.1-0.1,4.2-0.2,6.3c-0.4,0.4-1.1,0.8-1.2,1.3c-2.2,6.1-4.3,12.2-6.3,18.3c-4.3,13.3-5.6,27-5.2,40.9
	c0.3,11.6,3.2,22.5,8.5,32.5c9.1,17.3,23.6,28.7,41.9,35.3c17.8,6.3,36.2,9,55.1,6.6c6.6-0.9,13.3-2,19.6-4.2
	c10.2-3.5,19.5-8.8,27.9-15.6c4.6-3.7,5.2-3.7,7.8,1.7c4.5,9.3,9.1,18.5,12.9,28c9.7,24.2,14.6,49.2,12.5,75.5
	c-1.6,20-6.2,39-16,56.6c-6.4,11.5-14.1,22.1-24.2,30.6c-8.9,7.5-18.6,14.2-28.4,20.5c-16.6,10.8-34.6,18.7-53.3,25
	c-15.2,5.1-30.6,9.6-46.6,11.6c-13,1.6-26.1,3.3-39.2,4.2c-8.2,0.5-16.5,0.1-24.6-0.7c-12.5-1.2-25-2.5-37.2-5
	c-12.4-2.5-24.5-6.3-36.7-9.8c-15.5-4.4-30.2-11-44.3-18.8c-11.6-6.5-22.9-13.5-33.2-22.1c-9.9-8.1-18.2-17.5-24.9-28.1
	c-8.6-13.6-14.6-28.5-17.9-44.4c-3.3-16-4.7-32.1-2.3-48.2c2.9-19.4,7-38.6,15.6-56.5c6.9-14.4,13.7-28.8,21.4-42.7
	c4.9-8.9,11.5-16.8,17.3-25.2C114,153.8,116,150.6,118,147.5L118,147.5z M88.2,321.3c0.3,2.6,0.6,6.6,1.3,10.5
	c5.6,32.8,40.9,64.8,84.3,48.5c21.2-8,35.9-23.6,45.9-43.5c10.3-20.7,13.7-41.9,4.2-64.2c-14-32.6-46.7-46.7-79.2-33.6
	c-14.2,5.7-25.3,15.4-34.9,27C96.9,281.6,89.2,299.4,88.2,321.3L88.2,321.3z M372.5,233.7c-4.6,0.9-9.3,1.5-13.8,2.9
	c-29.5,9.1-48.8,41.9-43.2,73c4.4,24.8,16.3,45.1,36.2,60.5c14.7,11.4,31.3,16.5,50.1,13.7c34.4-5.2,59.5-40.7,52.5-74.8
	c-5-24.3-17.4-44.1-36.8-59.4C404.4,239.2,389.6,233.3,372.5,233.7L372.5,233.7z M272.2,405.5c5.7,6.6,12.7,8.2,20.8,6.8
	c9.5-1.7,18.3-9.3,19.7-17.2c0.8-4.2-1.3-8.5-4.8-10c-3.4-1.4-6.2-0.1-8.9,4c-0.5,0.7-0.9,1.5-1.5,2.2c-2.3,2.8-5.2,4.2-8.8,3.8
	c-3.5-0.4-6.2-2.1-7.1-5.6c-1.3-5.2-0.1-8,3.4-10.2c2.9-1.9,5.9-3.9,8.2-6.4c6.4-7.3,3-18.9-6.5-20c-9.7-1.1-19.7-0.5-29.4,0.3
	c-5.6,0.5-8.9,5.6-8.7,11.4c0.2,7.2,4.8,11.4,10.5,14.9c1.3,0.8,3.1,1.6,3.7,2.8c1.7,3.3,0,9.6-2.8,11.6c-3.3,2.3-8.4,1.9-11.6-1.3
	c-1.6-1.6-2.5-3.9-4.3-5.1c-1.9-1.3-4.5-2.8-6.5-2.4c-2,0.4-4.3,2.6-5.3,4.5c-2,4-0.5,8.1,1.7,11.7
	C242.7,415,262.1,416.5,272.2,405.5L272.2,405.5z"/>
<path class="st2" d="M118,147.5c-2.1,3.2-4.1,6.4-6.2,9.5c-5.8,8.4-12.4,16.4-17.3,25.2c-7.7,13.9-14.6,28.3-21.4,42.7
	c-8.6,17.9-12.7,37.1-15.6,56.5c-2.4,16.1-1,32.2,2.3,48.2c3.3,15.9,9.3,30.8,17.9,44.4c6.7,10.6,15.1,20,24.9,28.1
	c10.4,8.5,21.6,15.6,33.2,22.1c14.1,7.8,28.8,14.4,44.3,18.8c12.2,3.5,24.3,7.3,36.7,9.8c12.2,2.5,24.8,3.8,37.2,5
	c8.2,0.8,16.5,1.2,24.6,0.7c13.1-0.9,26.2-2.5,39.2-4.2c16-2,31.4-6.5,46.6-11.6c18.7-6.3,36.7-14.2,53.3-25
	c9.8-6.3,19.5-13,28.4-20.5c10.1-8.4,17.8-19,24.2-30.6c9.8-17.6,14.3-36.6,16-56.6c2.1-26.3-2.8-51.3-12.5-75.5
	c-3.8-9.5-8.4-18.8-12.9-28c-2.6-5.4-3.2-5.5-7.8-1.7c-8.4,6.8-17.8,12.1-27.9,15.6c-6.3,2.2-13,3.3-19.6,4.2
	c-18.9,2.5-37.2-0.2-55.1-6.6c-18.3-6.5-32.8-18-41.9-35.3c-5.3-10-8.2-20.9-8.5-32.5c-0.4-13.9,0.9-27.6,5.2-40.9
	c2-6.2,4.2-12.2,6.3-18.3c0.2-0.5,0.8-0.9,1.2-1.3c4.9,4.7,9.1,5.4,14.7,1.4c5.3-3.8,9.9-8.4,15-12.4c20.7-16.1,52.3-18.3,73.7-5.3
	c1.9,1.1,3.6,2.6,5.7,4.1c-3.2,3.4-6,6.6-9.1,9.4c-0.8,0.7-3.1,0.4-4.3-0.2c-15-6.8-29.9-6.2-44.6,0.3c-24.8,11-36.5,40.3-27.2,67.3
	c12.3,35.6,55.7,48.3,85,24.7c11.3-9.1,18.8-21,21.5-35.4c0.5-2.9,1.5-3.9,4.3-3.5c2.1,0.3,4.2,0.4,6.5,0.6
	c-0.3,8.3-2.1,15.8-6.7,22.4c-3.1,4.5-3.3,4.9,0.2,9.1c9.6,11.5,19,23.2,26.2,36.4c15.5,28.6,25.6,58.8,25.7,91.7
	c0.1,35.2-8.8,67.7-30.8,95.8c-14,17.9-31.9,31.2-51.5,42.2c-33.9,19-70.2,31-108.8,35.9c-52.8,6.6-103.8-0.7-152.8-21.3
	c-21.2-8.9-41.4-19.5-59.1-34.1c-24.2-20-39.8-45.6-47.3-75.9c-10.5-42.3-4.4-83,13.7-122.2c12.5-27.2,30.2-50.8,52.3-71
	C116,148.9,117,148.2,118,147.5L118,147.5z"/>
<path class="st4" d="M54.2,475.9c-1.7-11.5,2.1-22.1,5.6-32.7c0.2-0.7,0.8-1.2,1.2-1.8c2.2,2.3,4.4,4.7,6.6,7
	c7.9,8.1,17.9,13.3,27.7,18.6c11.5,6.3,23.5,11.7,35.1,17.8c15,7.8,30.1,15.4,44.6,24c6.5,3.8,11.6,9.9,17.4,15
	c1.3,1.2,2.4,2.6,3.6,3.9c0.5,3.5,1,7,1.5,10.5c-5.2,1.5-10.3,3.1-15.6,4.3c-6.2,1.3-12.4,2.8-18.7,3.1c-18.3,0.8-36.4-1.2-54-7
	c-11.8-3.9-22.1-10.1-31.2-18.2c-11-9.9-18.6-22-21.9-36.6C55.6,481.1,54.9,478.5,54.2,475.9L54.2,475.9z"/>
<path class="st4" d="M345.4,538.2c0.5-3.5,1-7,1.5-10.4c0.7-0.5,1.5-0.8,2-1.4c1.9-2.4,3.5-5.1,5.6-7.3c6.9-7.8,16.2-12.2,24.9-17.5
	c3.6-2.2,7.3-4.1,11.1-6c8.3-4.1,16.8-7.8,25-12c12.5-6.3,24.9-12.9,37.4-19.3c9.5-4.8,18.7-10.2,26.1-18.1c1-1,2.4-1.7,3.6-2.5
	c1.7,5,3.9,9.8,4.9,15c1.2,6.2,1.2,12.5,1.7,18.8c-0.7,0.8-1.8,1.5-2,2.3c-0.8,3.1-0.6,6.6-1.9,9.4c-3.5,7.5-7.2,14.9-11.7,21.8
	c-5,7.8-12.4,13.7-20.3,18.3c-9.2,5.5-19.2,9.7-29.7,12c-9.5,2.1-19.3,3.6-29,4.2c-14.3,1-28.5-0.5-42.2-5.1
	C350,539.8,347.7,539,345.4,538.2L345.4,538.2z"/>
<path class="st3" d="M323.9,509c-3.7,9.9-5.3,20.1-5.2,30.6c-1.4,0.1-2.7,0.2-4.1,0.4c-11.7,1.4-23.3,3.5-35,4
	c-10.9,0.5-21.8-0.5-32.7-1.4c-7.5-0.6-15-1.9-22.4-2.9c0-10.3-1.8-20.3-5.4-30c2.5,0,5-0.1,7.5,0.2c9,0.9,18,2.7,27,2.7
	c18.6,0,37.3-0.7,56-1.4C314.4,510.9,319.1,509.7,323.9,509L323.9,509z"/>
<path class="st3" d="M389.3,140.8c13.8-13.3,27.2-26.1,40.5-39.1c1.5-1.5,2.1-3.8,3-5.8c3.2-7.1,10.3-11.3,17.8-10.5
	c7.9,0.9,13.7,6.4,15.2,14.3c2.1,11.5-8.3,21.6-20.4,19.1c-4.2-0.8-6.3,0.7-8.7,3.1c-10.2,10.1-20.4,20.2-30.6,30.3
	c-3.2,3.2-6.3,6.5-9.7,9.3c-5.4,4.6-10.5,4.2-15.6-0.8c-7-6.9-14-13.9-21-20.9c-4.2-4.2-4.9-8.1-2.7-12.5c3.1-6.1,10.3-7.7,15.4-3.1
	c4.6,4.2,8.9,8.8,13.3,13.2C386.9,138.6,388.1,139.7,389.3,140.8L389.3,140.8z"/>
<path class="st5" d="M54.2,475.9c0.7,2.6,1.4,5.2,2,7.8c3.3,14.6,10.9,26.8,21.9,36.6c9.1,8.2,19.4,14.3,31.2,18.2
	c17.6,5.9,35.6,7.8,54,7c6.3-0.3,12.5-1.8,18.7-3.1c5.2-1.1,10.4-2.8,15.6-4.3c0.4,6.6-0.9,12.8-3.8,18.8c-1.3,2.6-2.9,3.8-6,3.8
	c-19.5-0.2-38.9,0.1-58.4-0.1c-15.1-0.2-28.1-6.5-40.1-15c-14.4-10.3-24.4-24.1-31.1-40.3c-3.6-8.7-5-17.9-4.6-27.3
	C53.6,477.3,54,476.6,54.2,475.9L54.2,475.9z"/>
<path class="st4" d="M29.6,138.4c-0.5-6.3-1.5-12.6-1.5-18.9c0-17.6,6.1-32.9,18-46.1C55.5,62.9,66.8,55.7,80.3,52
	c13-3.6,26-2.8,38.5,2c9.8,3.8,18.6,9.5,25.7,17.5c3.2,3.6,6.1,7.5,9.2,11.2c1.8,2.1,1.1,3.5-1,4.8c-1.7,1-3.3,2.1-5.1,3.3
	c-7.2-8.6-15.3-15.9-25.4-20.3c-18.4-8-36.4-7.7-54.1,2.3C50.6,82.5,41.8,98,38.8,117.1c-0.9,6-0.1,12.2-0.1,18.3
	c-0.4,0.5-1.2,1.4-1.2,1.5c0.8,0.8,1.6,1.6,2.5,2.3c0,1.2,0.1,2.4,0.1,3.7c-1.1,2.1-0.7,5.3-4.9,6c0.8-1.5,1.5-2.5,1.6-3.5
	c0.2-1.3-0.1-2.6-0.2-3.9c-1.1,0.2-2.2,0.4-3.3,0.8c-0.6,0.2-1.1,0.6-1.6,0.9c-0.5-1-0.9-2.1-1.4-3.1
	C30.1,139.4,29.8,138.9,29.6,138.4L29.6,138.4z"/>
<path class="st5" d="M345.4,538.2c2.3,0.8,4.6,1.6,6.9,2.3c13.7,4.5,27.9,6,42.2,5.1c9.7-0.7,19.5-2.2,29-4.2
	c10.5-2.3,20.5-6.5,29.7-12c7.9-4.7,15.3-10.5,20.3-18.3c4.5-6.9,8.1-14.4,11.7-21.8c1.3-2.8,1.2-6.3,1.9-9.4c0.2-0.9,1.3-1.6,2-2.3
	c-0.5,14.5-3.5,28.1-11.1,40.7c-7.4,12.2-16.9,22.4-28.8,30.2c-9.3,6.1-19.5,11.3-30.9,11.6c-21.3,0.6-42.6,0.6-64,0.8
	c-4.7,0-5.5-4.3-6.4-7.2C346.4,548.6,346.2,543.3,345.4,538.2L345.4,538.2z"/>
<path class="st4" d="M124.1,105.5c-4.7,3.7-9.4,7.3-14,11c-12,9.7-23.2,20.3-33,32.3c-3.3,4.1-6.7,8.2-10.3,12.6
	c-6.8-7.4-8.5-16.2-9.5-25.3c0.2-0.4,0.6-0.8,0.7-1.3c1.1-10.7,4.9-20,12.7-27.6c8.1-8,17.9-11.9,29.1-11.4
	C108.8,96.2,117.1,99.5,124.1,105.5L124.1,105.5z"/>
<path class="st5" d="M482.6,443.7c-1.2,0.8-2.6,1.5-3.6,2.5c-7.4,7.9-16.6,13.2-26.1,18.1c-12.5,6.3-24.9,13-37.4,19.3
	c-8.3,4.2-16.7,7.9-25,12c-3.8,1.8-7.5,3.8-11.1,6c-8.7,5.3-18,9.7-24.9,17.5c-2,2.3-3.7,4.9-5.6,7.3c-0.5,0.6-1.3,0.9-2,1.4
	c1-3.7,1.4-7.6,2.9-11c4.5-10,10.8-18.7,19.6-25.2c3.9-2.9,8.7-4.6,13.2-6.6c10.6-4.8,21.4-9.2,31.9-14.2c7.8-3.7,15.3-8,22.9-12.2
	c12.9-7,24.3-16,34.6-26.4c1.8-1.9,3.7-2.7,5.1-0.1C479.1,435.7,480.8,439.7,482.6,443.7L482.6,443.7z"/>
<path class="st5" d="M196,527.7c-1.2-1.3-2.3-2.7-3.6-3.9c-5.7-5.1-10.9-11.1-17.4-15c-14.5-8.6-29.6-16.2-44.6-24
	c-11.6-6.1-23.7-11.5-35.1-17.8c-9.7-5.4-19.8-10.5-27.7-18.6c-2.2-2.3-4.4-4.7-6.6-7c1.6-3.4,3-6.8,4.9-10c1.3-2.3,3.1-0.7,4.4,0.3
	c6.4,5.3,12.6,10.9,19,16.2c9.1,7.4,19.3,13,29.5,18.4c6.5,3.4,13,6.6,19.7,9.6c8.9,4,17.9,7.8,26.9,11.7
	c8.3,3.5,14.4,9.5,19.9,16.5c4.5,5.7,8,11.9,10,19C195.7,524.5,195.8,526.1,196,527.7L196,527.7z"/>
<path class="st2" d="M224.5,539.7c7.5,1,14.9,2.4,22.4,2.9c10.9,0.8,21.8,1.8,32.7,1.4c11.7-0.5,23.3-2.6,35-4
	c1.4-0.2,2.7-0.2,4.1-0.4c1.1,6.9,2.2,13.7,3.4,20.8H221C222.2,553.6,223.3,546.7,224.5,539.7z"/>
<path class="st4" d="M501.2,143.7c4.7-19.7,3.1-38.5-8.7-55.4c-9.3-13.4-21.9-22.3-38.7-24.1c-4.7-0.5-8.8-1.5-12.3-5
	c-2.9-2.9-6.6-5-10-7.4c0.1-0.5,0.2-1,0.3-1.5c7-0.1,14-0.6,20.9,0c8.7,0.7,17,3.3,24.8,7.5c9.7,5.3,17.5,12.5,23.7,21.5
	c6.4,9.2,11,19.3,12.3,30.5c1.4,12.4,1.6,24.7-3.6,36.5c-1.3,3-2.3,6.2-3.5,9.3c-4.1,0.2-0.3-2.3-1.4-3.1c-1.5-1.7-3.1-3.4-4.7-5.2
	c0-0.5,0-1,0.1-1.5c0.7-0.3,1.4-0.6,2.1-0.9C502.1,144.6,501.7,144.2,501.2,143.7L501.2,143.7z"/>
<path class="st2" d="M323.9,509c-4.8,0.7-9.5,1.9-14.3,2.1c-18.6,0.7-37.3,1.5-56,1.4c-9,0-18-1.8-27-2.7c-2.5-0.2-5-0.1-7.5-0.2
	c-1.5-3-3-6-4.3-8.5c18.8,1.1,37.6,2.6,56.5,3.1c19,0.5,37.9-1,57.3-4.5C326.8,503.2,325.4,506.1,323.9,509L323.9,509z"/>
<path class="st5" d="M124.1,105.5c-7-6-15.3-9.3-24.4-9.7c-11.2-0.5-20.9,3.5-29.1,11.4c-7.8,7.7-11.6,17-12.7,27.6
	c-0.1,0.4-0.4,0.8-0.7,1.3c0-4.3-0.5-8.6,0.1-12.8c2-13,8.2-23.6,19.6-30.6c8.5-5.2,17.8-6,27.6-4.9c8.7,1,15.7,5,22.3,10.3
	c1.2,0.9,2.4,1.7,4.5,3.1C128.1,103.2,126.1,104.4,124.1,105.5L124.1,105.5z"/>
<path class="st5" d="M31.7,143.1c0.5-0.3,1-0.7,1.6-0.9c1.1-0.3,2.2-0.5,3.3-0.8c0.1,1.3,0.4,2.6,0.2,3.9c-0.1,1-0.9,2-1.6,3.5
	c4.2-0.7,3.9-3.9,4.9-6c0.7,1.2,1.6,2.3,2.1,3.6c3.4,9.7,9.1,17.9,16.1,25.6c-1.4,1.9-2.8,3.6-4.8,6.2c-3.9-4.4-8-8.1-10.9-12.5
	c-3.9-5.8-7-12.2-10.2-18.4C31.6,146.2,31.8,144.5,31.7,143.1z"/>
<path class="st5" d="M500.4,147.4c1.5,1.7,3.1,3.4,4.7,5.2c1.1,0.7-2.7,3.2,1.4,3.1c-4,8.3-11.7,17.7-17.7,21.7
	c-4.6-4.8-4.3-4.6-0.5-10.1c3.7-5.3,6.7-11.2,10-16.8C499,149.4,499.7,148.4,500.4,147.4L500.4,147.4z"/>
<path class="st5" d="M485.5,127.4c0.3,9.3-0.9,17.8-5.2,26.5c-0.3-1.4-0.7-2-0.6-2.6c0.4-5.4,1.1-10.8,1.3-16.2
	C481.1,131.8,482.3,129.5,485.5,127.4z"/>
<path class="st5" d="M40,139.2c-0.9-0.8-1.8-1.5-2.5-2.3c-0.1-0.1,0.8-1,1.2-1.5C39.1,136.7,39.6,138,40,139.2L40,139.2z"/>
<path class="st5" d="M501.2,143.7c0.5,0.4,0.9,0.9,1.4,1.3c-0.7,0.3-1.4,0.6-2.1,0.9C500.7,145.2,501,144.5,501.2,143.7z"/>
<path class="st5" d="M29.6,138.4c0.2,0.5,0.4,1,0.7,1.5C30.1,139.4,29.8,138.9,29.6,138.4z"/>
<path class="st5" d="M479.1,155.5c0.1,0,0.3,0.1,0.3,0.1c0,0.1-0.1,0.2-0.1,0.3c-0.1,0-0.3-0.1-0.3-0.1
	C479,155.7,479,155.6,479.1,155.5z"/>
<path class="st1" d="M88.2,321.3c0.9-21.9,8.7-39.7,21.5-55.3c9.5-11.6,20.7-21.3,34.9-27c32.5-13.1,65.2,1,79.2,33.6
	c9.6,22.2,6.2,43.5-4.2,64.2c-10,19.9-24.7,35.5-45.9,43.5c-43.4,16.4-78.7-15.7-84.3-48.5C88.8,327.8,88.5,323.9,88.2,321.3
	L88.2,321.3z M151.1,334.5c10.4,0,18.7-8.2,18.6-18.4c0-9.9-8.2-18.4-17.9-18.4c-10.9,0-19.7,8.5-19.5,18.9
	C132.5,326.4,141,334.5,151.1,334.5L151.1,334.5z"/>
<path class="st1" d="M372.5,233.7c17.1-0.4,32,5.5,45,15.8c19.4,15.3,31.8,35.1,36.8,59.4c7,34.1-18.1,69.7-52.5,74.8
	c-18.8,2.8-35.4-2.3-50.1-13.7c-19.9-15.4-31.8-35.7-36.2-60.5c-5.6-31.2,13.7-63.9,43.2-73C363.1,235.2,367.9,234.7,372.5,233.7
	L372.5,233.7z M411.3,316.1c0-10-8.7-18.5-18.8-18.4c-10.7,0-18.9,8.1-18.8,18.6c0.1,10.3,8.3,18.2,18.7,18.3
	C403.4,334.5,411.4,326.7,411.3,316.1L411.3,316.1z"/>
<path class="st1" d="M272.2,405.5c-10.1,11-29.5,9.5-38.3-4.4c-2.3-3.6-3.7-7.7-1.7-11.7c1-2,3.3-4.2,5.3-4.5c2-0.4,4.6,1.1,6.5,2.4
	c1.8,1.2,2.7,3.6,4.3,5.1c3.2,3.2,8.3,3.6,11.6,1.3c2.8-2,4.6-8.3,2.8-11.6c-0.7-1.3-2.4-2-3.7-2.8c-5.6-3.5-10.2-7.7-10.5-14.9
	c-0.2-5.7,3-10.9,8.7-11.4c9.8-0.8,19.8-1.4,29.4-0.3c9.5,1.1,12.9,12.8,6.5,20c-2.3,2.6-5.3,4.5-8.2,6.4c-3.5,2.3-4.7,5-3.4,10.2
	c0.9,3.6,3.5,5.3,7.1,5.6c3.6,0.4,6.6-1.1,8.8-3.8c0.5-0.7,1-1.5,1.5-2.2c2.8-4.2,5.6-5.4,8.9-4c3.5,1.5,5.6,5.7,4.8,10
	c-1.4,7.9-10.2,15.6-19.7,17.2C285,413.7,277.9,412.1,272.2,405.5L272.2,405.5z"/>
<path class="st3" d="M151.1,334.5c-10.1,0-18.6-8.1-18.8-17.9c-0.2-10.4,8.6-18.9,19.5-18.9c9.6,0,17.8,8.5,17.9,18.4
	C169.8,326.3,161.5,334.4,151.1,334.5L151.1,334.5z"/>
<path class="st3" d="M411.3,316.1c0,10.6-8,18.4-18.8,18.4c-10.4,0-18.6-8-18.7-18.3c-0.1-10.5,8.1-18.6,18.8-18.6
	C402.7,297.6,411.3,306.1,411.3,316.1L411.3,316.1z"/>
<g>
	<path class="st2" d="M745.9,162.9V221h-44.8v232.3h-75.5V221h-44.7v-58.1H745.9z"/>
	<path class="st2" d="M935.7,332.9c0,29.2-0.7,49.8-2.1,62c-1.4,12.1-5.7,23.2-12.9,33.3c-7.2,10-17,17.8-29.3,23.1
		c-12.3,5.4-26.7,8.1-43.1,8.1c-15.5,0-29.5-2.5-41.9-7.6c-12.4-5.1-22.3-12.7-29.9-22.9c-7.5-10.2-12-21.2-13.5-33.2
		c-1.4-12-2.2-32.9-2.2-62.8v-49.7c0-29.2,0.7-49.8,2.1-62c1.4-12.1,5.7-23.2,12.9-33.3c7.2-10,17-17.8,29.3-23.1
		c12.3-5.4,26.7-8.1,43.1-8.1c15.5,0,29.5,2.5,41.9,7.6c12.4,5.1,22.3,12.7,29.9,22.9c7.5,10.2,12,21.2,13.5,33.2
		c1.4,12,2.2,32.9,2.2,62.8V332.9z M860.2,237.5c0-13.5-0.7-22.2-2.2-25.9c-1.5-3.8-4.6-5.7-9.2-5.7c-3.9,0-7,1.5-9.1,4.6
		c-2.1,3-3.1,12-3.1,27v135.6c0,16.9,0.7,27.3,2.1,31.2c1.4,3.9,4.6,5.9,9.6,5.9c5.1,0,8.4-2.3,9.9-6.8c1.4-4.5,2.2-15.4,2.2-32.5
		V237.5z"/>
	<path class="st4" d="M963.9,162.9h56.5c36.5,0,61.1,1.7,74,5c12.9,3.3,22.6,8.9,29.3,16.5c6.7,7.7,10.9,16.2,12.6,25.6
		c1.7,9.4,2.5,27.8,2.5,55.3V367c0,26.1-1.2,43.5-3.7,52.3c-2.5,8.8-6.7,15.7-12.8,20.6c-6.1,5-13.6,8.4-22.6,10.4s-22.5,3-40.5,3
		h-95.3V162.9z M1039.4,212.6v191c10.9,0,17.6-2.2,20.1-6.5c2.5-4.4,3.8-16.2,3.8-35.6V248.6c0-13.2-0.4-21.6-1.3-25.3
		c-0.8-3.7-2.8-6.4-5.7-8.2C1053.3,213.4,1047.7,212.6,1039.4,212.6z"/>
	<path class="st4" d="M1339.5,332.9c0,29.2-0.7,49.8-2.1,62c-1.4,12.1-5.7,23.2-12.9,33.3c-7.2,10-17,17.8-29.3,23.1
		c-12.3,5.4-26.7,8.1-43.1,8.1c-15.5,0-29.5-2.5-41.9-7.6c-12.4-5.1-22.3-12.7-29.9-22.9c-7.5-10.2-12-21.2-13.5-33.2
		c-1.4-12-2.2-32.9-2.2-62.8v-49.7c0-29.2,0.7-49.8,2.1-62c1.4-12.1,5.7-23.2,12.9-33.3c7.2-10,17-17.8,29.3-23.1
		c12.3-5.4,26.7-8.1,43.1-8.1c15.5,0,29.5,2.5,41.9,7.6c12.4,5.1,22.3,12.7,29.9,22.9c7.5,10.2,12,21.2,13.5,33.2
		c1.4,12,2.2,32.9,2.2,62.8V332.9z M1264,237.5c0-13.5-0.7-22.2-2.2-25.9c-1.5-3.8-4.6-5.7-9.2-5.7c-3.9,0-7,1.5-9.1,4.6
		c-2.1,3-3.1,12-3.1,27v135.6c0,16.9,0.7,27.3,2.1,31.2c1.4,3.9,4.6,5.9,9.6,5.9c5.1,0,8.4-2.3,9.9-6.8c1.4-4.5,2.2-15.4,2.2-32.5
		V237.5z"/>
</g>
</svg>
